# xmcd
#
# Track frame offsets: 
#        150
#        13775
#        31520
#        45992
#        64050
#        77570
#        91600
#        105830
#        115410
#        125182
#        144542
#        167737
#        178435
#        193790
#
# Disc length: 2804 seconds
#
# Revision: 4
# Processed by: cddbd v1.5.2PL0 Copyright (c) Steve Scherf et al.
# Submitted via: ExactAudioCopy v0.99pb3
#
DISCID=b20af20e
DTITLE=Lightnin' Hopkins - Lightnin' Strikes (1998 Remaster)
DYEAR=1962
DGENRE=Blues
TTITLE0=Got Me A Louisiana Woman
TTITLE1=Want To Come Home
TTITLE2=Please Don't Quit Me
TTITLE3=Devil Is Watching You
TTITLE4=Rolling And Rolling
TTITLE5=War Is Starting Again
TTITLE6=Walkin' Round In Circles
TTITLE7=Mary Lou
TTITLE8=Heavy Snow
TTITLE9=Coon Is Hard To Catch
TTITLE10=Introduction/Big Car Blues (bonus track from "Coffee House Bl
TTITLE10=ues" 1960)
TTITLE11=Coffee House Blues (bonus track from "Coffee House Blues" 196
TTITLE11=0)
TTITLE12=Stool Pigeon Blues (bonus track from "Coffee House Blues" 196
TTITLE12=0)
TTITLE13=Ball Of Twine (bonus track from "Coffee House Blues" 1960)
EXTD=Reissued 2003 with Bonus tracks 11- 14 from the album "Coffee Hou
EXTD=se Blues"
EXTT0=
EXTT1=
EXTT2=
EXTT3=
EXTT4=
EXTT5=
EXTT6=
EXTT7=
EXTT8=
EXTT9=
EXTT10=
EXTT11=
EXTT12=
EXTT13=
PLAYORDER=
